<svg width="24" height="24" viewBox="0 0 24 24" fill="none" xmlns="http://www.w3.org/2000/svg">
    <path fill-rule="evenodd" clip-rule="evenodd" d="M7 2a1 1 0 0 1 1 1v1h8V3a1 1 0 1 1 2 0v1h1.364C20.847 4 22 5.23 22 6.684v12.632C22 20.77 20.847 22 19.364 22H4.636C3.153 22 2 20.77 2 19.316V6.684C2 5.23 3.153 4 4.636 4H6V3a1 1 0 0 1 1-1zm9 4v1a1 1 0 1 0 2 0V6h1.364c.324 0 .636.279.636.684V9H4V6.684C4 6.28 4.312 6 4.636 6H6v1a1 1 0 0 0 2 0V6h8zm4 5v8.316c0 .405-.312.684-.636.684H4.636C4.312 20 4 19.721 4 19.316V11h16z" fill="#fff"/>
</svg>
