<svg width="14" height="14" viewBox="0 0 14 14" fill="none" xmlns="http://www.w3.org/2000/svg">
    <path d="M.875 12.25h1.75v.875a.875.875 0 0 1-1.75 0v-.875zM11.375 12.25h1.75v.875a.875.875 0 0 1-1.75 0v-.875z" fill="#868998"/>
    <path fill-rule="evenodd" clip-rule="evenodd" d="m13.9 9.406-1.65-4.878V1.176c0-.165-.158-.301-.35-.301H2.1c-.192 0-.35.136-.35.301V4.52L.064 9.406H13.9zm.1.948H0v1.896h14v-1.896zM2.625 1.96v2.416h3.5V1.959c0-.115-.052-.209-.117-.209H2.742c-.065 0-.117.094-.117.21zm5.25 2.416V1.959c0-.115.052-.209.117-.209h3.266c.065 0 .117.094.117.21v2.415h-3.5z" fill="#868998"/>
</svg>
