<svg width="24" height="24" viewBox="0 0 24 24" fill="none" xmlns="http://www.w3.org/2000/svg">
    <path d="M11.666 7a2.5 2.5 0 1 0 0-5 2.5 2.5 0 0 0 0 5zM18.246 13.294l-2.04-4.079a2.49 2.49 0 0 0-2.236-1.382H9.363c-.952 0-1.81.53-2.236 1.382l-2.039 4.08a.834.834 0 0 0 1.491.745l2.04-4.08a.824.824 0 0 1 .343-.353l-1.645 8.226h1.85v3.334a.833.833 0 1 0 1.666 0v-3.334H12.5v3.334a.833.833 0 1 0 1.666 0v-3.334h1.85l-1.644-8.225c.145.08.266.198.344.353l2.039 4.079a.834.834 0 0 0 1.49-.746z" fill="#868998"/>
</svg>
