<svg width="18" height="19" viewBox="0 0 18 19" fill="none" xmlns="http://www.w3.org/2000/svg">
    <g clip-path="url(#g1dhc6rpva)">
        <path d="M11.555 4.233a.737.737 0 0 0-1.06 0 .782.782 0 0 0 0 1.087l3.444 3.529H2.25a.76.76 0 0 0-.75.768.76.76 0 0 0 .75.769h11.69l-3.445 3.53a.782.782 0 0 0 0 1.086c.293.3.767.3 1.06 0l4.721-4.837a.725.725 0 0 0 .152-.22.781.781 0 0 0-.153-.876l-4.72-4.836z" fill="#868998"/>
    </g>
    <defs>
        <clipPath id="g1dhc6rpva">
            <path fill="#fff" transform="translate(1.5 1.933)" d="M0 0h15v15.369H0z"/>
        </clipPath>
    </defs>
</svg>
