<svg width="14" height="14" viewBox="0 0 14 14" fill="none" xmlns="http://www.w3.org/2000/svg">
    <path d="M7.342 6.72.356.097A.207.207 0 0 0 .11.066a.225.225 0 0 0-.107.232 9.323 9.323 0 0 0 2.757 5.17l2.556 2.423c.293.28.75.26 1.02-.044l.205-.227c2.05 2.36 5.07 5.496 5.438 5.846.583.553 1.381.63 1.789.175.407-.454.265-1.268-.318-1.82-.369-.348-3.655-3.189-6.108-5.1zM8.055 5.892c.372.29.763.602 1.16.922a1.97 1.97 0 0 0 1.47-.585l3.186-3.596a.36.36 0 0 0-.008-.481.334.334 0 0 0-.495.005L10.784 5.01a.377.377 0 0 1-.544-.008.405.405 0 0 1 .008-.56l2.65-2.781a.388.388 0 0 0 0-.53.36.36 0 0 0-.515-.014l-2.78 2.64a.377.377 0 0 1-.545-.007.405.405 0 0 1 .009-.56L11.913.614a.357.357 0 0 0 .02-.508.335.335 0 0 0-.468-.022L7.88 3.254a2.114 2.114 0 0 0-.563 1.936l.738.702zM5.802 9.182c-.462 0-.905-.178-1.241-.498l-.178-.17C2.55 10.107.801 11.704.547 11.96c-.55.55-.667 1.342-.262 1.772.404.429 1.178.333 1.728-.216.279-.28 2.157-2.33 3.885-4.337-.033.003-.063.003-.096.003z" fill="#868998"/>
</svg>
