<svg width="24" height="24" viewBox="0 0 24 24" fill="none" xmlns="http://www.w3.org/2000/svg">
<path fill-rule="evenodd" clip-rule="evenodd" d="M10 3C11.8638 3 13.4299 4.27477 13.874 6L20 6C20.5523 6 21 6.44771 21 7C21 7.55228 20.5523 8 20 8L13.874 8C13.4299 9.72523 11.8638 11 10 11C8.13616 11 6.57006 9.72523 6.12602 8H4C3.44772 8 3 7.55228 3 7C3 6.44772 3.44772 6 4 6H6.12602C6.57006 4.27477 8.13616 3 10 3ZM8 7C8 5.89543 8.89543 5 10 5C11.1046 5 12 5.89543 12 7C12 8.10457 11.1046 9 10 9C8.89543 9 8 8.10457 8 7Z" fill="#3F3B3B"/>
<path fill-rule="evenodd" clip-rule="evenodd" d="M17.874 16C17.4299 14.2748 15.8638 13 14 13C12.1362 13 10.5701 14.2748 10.126 16H4C3.44772 16 3 16.4477 3 17C3 17.5523 3.44772 18 4 18H10.126C10.5701 19.7252 12.1362 21 14 21C15.8638 21 17.4299 19.7252 17.874 18H20C20.5523 18 21 17.5523 21 17C21 16.4477 20.5523 16 20 16H17.874ZM16 17C16 18.1046 15.1046 19 14 19C12.8954 19 12 18.1046 12 17C12 15.8954 12.8954 15 14 15C15.1046 15 16 15.8954 16 17Z" fill="#3F3B3B"/>
</svg>
