<svg width="25" height="24" viewBox="0 0 25 24" fill="none" xmlns="http://www.w3.org/2000/svg">
    <path fill-rule="evenodd" clip-rule="evenodd" d="M11.792 3.633c.589-.773-.195-1.879-1.111-1.584a9.961 9.961 0 0 0-3.074 1.654c-3.593 2.835-4.86 7.963-3.014 12.204 2.46 5.635 9.035 7.726 14.11 4.722a9.894 9.894 0 0 0 1.716-1.287c.715-.671.187-1.916-.774-1.784a8.248 8.248 0 0 1-4.894-.782 8.52 8.52 0 0 1-3.62-3.465 8.842 8.842 0 0 1 .66-9.678zM6.427 15.108c-1.44-3.305-.518-7.293 2.137-9.6a10.838 10.838 0 0 0 .823 8.783 10.52 10.52 0 0 0 4.472 4.274c.852.426 1.753.728 2.677.903-3.82 1.493-8.305-.229-10.11-4.36z" fill="#fff"/>
</svg>
