<svg width="24" height="24" viewBox="0 0 24 24" fill="none" xmlns="http://www.w3.org/2000/svg">
    <path fill-rule="evenodd" clip-rule="evenodd" d="M9 6v16H3a1 1 0 0 1-1-1V4l7-2v2h5a1 1 0 0 1 1 1v2l-2 1V6H9zM7 20H4V6l3-1v15z" fill="#868998"/>
    <path fill-rule="evenodd" clip-rule="evenodd" d="M16.5 8c-1.937 0-3.497 1.62-3.497 3.606 0 .966.37 1.958.943 2.714.57.75 1.456 1.409 2.554 1.409 1.098 0 1.985-.659 2.554-1.41.573-.755.943-1.747.943-2.713C19.997 9.62 18.437 8 16.5 8zm-1.51 3.606c0-.87.682-1.566 1.51-1.566s1.51.695 1.51 1.566c0 .462-.19 1.021-.524 1.46-.335.443-.7.623-.986.623-.285 0-.65-.18-.986-.623-.333-.439-.524-.998-.524-1.46zM22 20.463c0 .44-.275.834-.69.97h-1.405c-.056.01-.113.02-.172.028l1.472.005a7.18 7.18 0 0 1-.252.068c-.217.055-.529.125-.934.194-.81.138-1.991.272-3.519.272s-2.709-.134-3.519-.272a12.369 12.369 0 0 1-.934-.194 7.18 7.18 0 0 1-.252-.068l.005-.018a.299.299 0 0 1-.076-.005l-.011-.003-.01-.002h-.002l-.006-.002-.003-.001 1.437.004-.033-.005H11.69l-.006-.002a1.018 1.018 0 0 1-.684-.97v-.516c0-2.272 1.784-4.124 3.998-4.124h3.004c2.214 0 3.998 1.852 3.998 4.124v.517zm-8.694-.748a12.353 12.353 0 0 1-.3-.055c.134-1.02.98-1.797 1.992-1.797h3.004c1.012 0 1.858.777 1.992 1.797-.091.018-.192.037-.3.055-.708.12-1.78.245-3.194.245s-2.486-.124-3.194-.245z" fill="#868998"/>
    <path d="m21.205 21.466.106-.032h-.003l-.003.002-.006.002h-.002l-.02.006a5.096 5.096 0 0 1-.072.022z" fill="#868998"/>
</svg>
