<svg width="25" height="24" viewBox="0 0 25 24" fill="none" xmlns="http://www.w3.org/2000/svg">
    <path fill-rule="evenodd" clip-rule="evenodd" d="M9.66 7.636a2.637 2.637 0 0 1 5.272 0c0 .756-.316 1.634-.853 2.318-.539.689-1.186 1.046-1.784 1.046-.597 0-1.244-.357-1.784-1.046-.536-.684-.852-1.562-.852-2.318zM12.295 3a4.637 4.637 0 0 0-4.637 4.636c0 1.253.498 2.557 1.278 3.552.777.991 1.948 1.812 3.359 1.812 1.41 0 2.581-.82 3.358-1.812.78-.995 1.278-2.299 1.278-3.552A4.637 4.637 0 0 0 12.296 3zm-2.182 11a5.363 5.363 0 0 0-5.364 5.364v.727a1 1 0 0 0 .695.952l.305-.952c-.305.952-.304.953-.304.953h.002l.003.001.009.003.028.009.096.028c.082.023.2.054.351.091.304.074.746.17 1.323.265 1.153.19 2.844.377 5.038.377 2.193 0 3.884-.187 5.037-.377a17.975 17.975 0 0 0 1.323-.265 10.19 10.19 0 0 0 .447-.12l.028-.008.009-.003h.003l.003-.002-.305-.952.305.952a1 1 0 0 0 .695-.952v-.727A5.363 5.363 0 0 0 14.477 14h-4.363zm-2.53 5.468a17.71 17.71 0 0 1-.834-.157A3.363 3.363 0 0 1 10.114 16h4.363a3.363 3.363 0 0 1 3.363 3.311c-.224.048-.502.102-.832.157-1.051.173-2.633.35-4.712.35-2.08 0-3.662-.177-4.713-.35z" fill="#fff"/>
</svg>
