<svg width="71" height="56" viewBox="0 0 71 56" fill="none" xmlns="http://www.w3.org/2000/svg">
    <path d="m3.514 23.84-.087-.042a2.588 2.588 0 0 0-.78-.123c-1.607 0-2.431 1.23-2.431 3.69 0 .45.043 2.336.13 2.787v3.484c-.087 1.148-.13 1.353-.13 1.394h.087-.087c0 2.09 1.215 2.5 2.213 2.5.347 0 .738-.04 1.042-.205a1.984 1.984 0 0 0 1.041-1.599v-2.008c0-.492.044-1.23.087-2.214.043-.983.087-3.074.087-3.648 0-2.131-.39-3.443-1.172-4.017zM.476 34.824c.044.123.044.205 0 .246v-.246zM2.474 23.307h.087l.043-.041c1.215-.451 1.823-1.435 1.823-2.87 0-1.598-.999-1.926-1.823-1.926h-.39C.78 18.675 0 19.453 0 20.765c0 .656.26 1.27.694 1.722.434.45 1.085.779 1.78.82z" fill="#003C71"/>
    <path d="M42.227 8.058 24.78 4l-1.302 4.632.477 1.148-.824.04-1.65 5.903 3.993-1.598.998 2.172 15.754-8.239z" fill="#26BED6"/>
    <path d="m42.226 8.058-16.751 6.067.998 2.172 15.753-8.239zM23.479 8.632l.477 1.148 18.27-1.722-18.747.574zM24.824 19.084h-.087c-.521-.081-1.085-.04-1.563.165-.52.122-.954.491-1.171.983a40.464 40.464 0 0 1-2.04 5.82 18.43 18.43 0 0 1-3.342 4.96c-.173.165-.434.206-.824.083-.651-.205-1.129-.697-1.389-1.312-2.387-5.206-4.08-8.567-5.078-10.043a2.087 2.087 0 0 0-1.822-.901c-.304 0-.565.04-.868.082-.521.123-.998.491-1.172.983a1.696 1.696 0 0 0-.087 1.517c1.736 3.361 2.864 5.534 3.429 6.64.868 1.927 1.475 3.28 1.779 4.059 1.692 3.77 3.298 5.615 4.947 5.615.13 0 .26 0 .39-.04.956-.165 1.954-1.313 2.995-3.485 1.259-2.582 2.084-4.386 2.518-5.288 1.215-2.336 2.04-3.935 2.473-4.755v-.04c.217-.575.521-1.148.825-1.722.347-.574.564-1.23.65-1.927 0-.492-.173-.984-.563-1.353v-.04zM29.164 18.675l-.087-.041a2.661 2.661 0 0 0-.824-.123c-1.606 0-2.43 1.23-2.43 3.73 0 .492.043.984.13 1.434v10.002c-.087 1.148-.13 1.394-.13 1.435l.086.04h-.087c0 2.091 1.215 2.542 2.214 2.542.347 0 .737-.04 1.041-.205.608-.369.998-.983 1.042-1.64v-8.525c0-.533.043-1.271.087-2.255.043-.984.086-1.762.086-2.295.044-2.173-.347-3.525-1.128-4.1zm-3.038 16.19a.685.685 0 0 1 .043.247l-.043-.246zM50.343 19.085h-.087c-.52-.082-1.085-.041-1.562.163-.52.123-.955.492-1.172.984-.564 1.968-1.215 3.935-2.04 5.82a18.432 18.432 0 0 1-3.341 4.96c-.174.165-.434.206-.781.083-.651-.205-1.129-.697-1.39-1.312-2.386-5.165-4.078-8.526-5.077-10.002-.564-.82-1.475-1.065-2.734-.82-.52.124-.955.492-1.171.984a1.696 1.696 0 0 0-.087 1.517c1.692 3.28 2.864 5.534 3.428 6.64.868 1.927 1.476 3.28 1.823 4.058 1.692 3.772 3.298 5.575 4.947 5.575.13 0 .26 0 .39-.04.956-.165 1.954-1.313 2.995-3.485a818.865 818.865 0 0 1 2.517-5.288c1.216-2.336 2.04-3.935 2.474-4.755v-.04c.26-.575.521-1.148.868-1.681.347-.574.564-1.23.651-1.927 0-.492-.173-.983-.52-1.352l-.13-.082zM70.002 25.766c-.13-.697-.174-1.353-.217-2.05V21.75c0-2.05-.608-3.074-1.78-3.074-1.475 0-2.343.778-2.516 2.254v2.009c0 4.55-.044 7.214-.087 7.87-.13 1.066-.695 2.05-1.52 2.787-.91.902-1.865 1.353-2.863 1.353a1.83 1.83 0 0 1-.651-.123c-1.563-.574-2.908-1.64-3.69-3.075-.607-1.147-.91-2.746-.91-4.713v-3.485c.043-1.598-.261-3.156-.782-4.672l-.043-.082-.087-.041c-.347-.287-.825-.451-1.302-.492a2.187 2.187 0 0 0-1.606.901c-.434.492-.694 1.066-.737 1.722 0 .287 0 .738.043 1.312.043.574.043.983.043 1.27 0 .574 0 1.476-.043 2.624-.043 1.148-.043 2.05-.043 2.623a13.156 13.156 0 0 0 .694 4.673c.824 2.132.955 2.378 1.041 2.46 1.302 1.721 3.299 2.582 5.903 2.582.39 0 .954-.041 1.736-.082a9.738 9.738 0 0 0 2.213-.615c.65-.287 1.345-.492 2.083-.533.52 0 1.042.041 1.562.123.564.082 1.129.123 1.65.123 1.692 0 2.04-.86 2.04-1.598v-7.994c.086-.696 0-1.393-.131-2.09z" fill="#003C71"/>
    <path d="M48.91 41.712a4.85 4.85 0 0 0-2.17-1.19 7.866 7.866 0 0 0-3.081-.368c-1.866.164-3.559.984-4.774 2.336l-.043.041c-.217.287-.39.615-.564.902a4.923 4.923 0 0 0-.912 2.87c0 1.967.998 3.566 2.951 4.714.825.45 1.78.737 2.734.82.434.04.912.081 1.346.081.564 0 1.085-.164 1.562-.41a12.668 12.668 0 0 0 1.302-.697 6.483 6.483 0 0 0 2.083-1.762 5.172 5.172 0 0 0 1.129-2.337c.043-.164.043-.369.043-.532-.043-.82-.174-1.64-.477-2.419a7.364 7.364 0 0 0-1.129-2.05zm-1.432 4.795c.044 1.19-.434 2.296-1.302 3.116 0 0-.087.082-.477.164-1.215.164-1.476.205-1.52.205-.867-.041-1.692-.37-2.3-.943a5.077 5.077 0 0 1-1.475-2.05c-.174-.492-.174-1.393 0-2.705.043-.41.434-.86 1.128-1.353a3.214 3.214 0 0 1 1.78-.82h.087c1.128-.04 2.256.41 2.994 1.23.738.902 1.172 2.009 1.085 3.157z" fill="#26BED6"/>
    <path d="M38.191 49.868h-1.128c-.217 0-.39.041-.607.123a1.33 1.33 0 0 1-.391.082c-1.172 0-2.343-.492-3.428-1.516-1.085-1.025-1.65-2.05-1.65-3.116-.043-.983.391-1.967 1.172-2.664.781-.697 1.866-1.066 2.951-1.025.304 0 .564.041.868.123.304.082.651.123.955.123.738 0 1.128-.369 1.128-.984 0-.328-.173-.779-.911-1.065a3.718 3.718 0 0 0-1.345-.246 9.072 9.072 0 0 0-5.121 1.598c-1.65 1.066-2.604 2.829-2.604 4.714-.044 1.722.824 3.361 2.343 4.345a10.955 10.955 0 0 0 4.948 1.599c.173 0 .303.04.477.04a4.64 4.64 0 0 0 1.476-.245c.91-.287 1.345-.738 1.345-1.353-.043-.492-.39-.533-.477-.533zM70.87 48.68c0-1.517-.087-3.034-.26-4.51-.391-2.623-1.346-4.099-2.778-4.385a5.69 5.69 0 0 0-1.172-.123c-.825 0-1.606.164-2.387.369-.347.123-.607.328-.868.532-.26.287-.608.492-.998.533-.477-.04-.955-.164-1.345-.41-1.302-.614-1.476-.697-1.52-.697a4.971 4.971 0 0 0-1.735-.286c-.782 0-2.691.205-3.516.696a2.33 2.33 0 0 0-1.562-.45c-.217 0-.477.04-.694.123-.608.204-.912.532-.955.901-.087 1.394-.087 3.771 0 7.133 0 .205 0 .491-.043.82 0 .41-.044.696-.044.86 0 1.64.694 2.009 1.302 2.009.39 0 .738-.123 1.085-.287l.087-.041.043-.041c.174-.205.26-.369.348-.492l.043-.082v-.082c0-.779-.044-1.517-.13-2.295-.087-1.19-.13-1.968-.13-2.378a7.404 7.404 0 0 1 .39-2.746c.26-.656.477-1.312.651-1.968.434 0 .868.041 1.302.082l.043.041h.044c1.345.287 1.605.451 1.649.451.39.328.738.738.998 1.189.26.41.477.86.564 1.312.13 1.106.174 2.254.13 3.402 0 .164 0 .492-.043.86-.043.37-.043.738-.043.943a2.35 2.35 0 0 0 .65 1.804c.174.164.435.246.695.246 1.128 0 1.432-.451 1.476-.861.13-1.107.173-2.255.13-3.361-.044-1.64-.044-2.788 0-3.32a4.89 4.89 0 0 1 .737-2.05c.087-.123.217-.246.348-.328.217-.04.477-.082.738-.082.868 0 1.692.205 2.43.656.738.369 1.172 1.025 1.215 1.804.087 4.058.174 6.312.347 6.845.174.738 1.042.943 2.17.287.52-.287.738-.656.738-.984 0-.328-.13-.902-.13-1.64zM27.558 48.557c-.13 0-.304.04-.434.082-.564.246-.955.82-.868 1.393 0 .41.13.82.39 1.148.218.328.608.533.999.492.39 0 .781-.123 1.085-.369.304-.246.434-.615.434-.984 0-.45-.174-.86-.478-1.189a1.756 1.756 0 0 0-1.128-.573z" fill="#26BED6"/>
</svg>
