<svg width="16" height="15" viewBox="0 0 16 15" fill="none" xmlns="http://www.w3.org/2000/svg">
    <g clip-path="url(#kdjci3p3ta)">
        <path d="M8.598 1.91A.672.672 0 0 0 8 1.564a.672.672 0 0 0-.598.348L5.716 5.114l-3.77.513a.657.657 0 0 0-.538.426.598.598 0 0 0 .168.64l2.729 2.494-.645 3.52a.607.607 0 0 0 .266.611c.205.14.477.158.702.048L8 11.704l3.372 1.662c.225.11.497.092.702-.048a.607.607 0 0 0 .265-.611l-.644-3.52 2.729-2.494a.598.598 0 0 0 .168-.64.657.657 0 0 0-.538-.426l-3.77-.513L8.598 1.91z" fill="#FFC400"/>
    </g>
    <defs>
        <clipPath id="kdjci3p3ta">
            <path fill="#fff" transform="translate(1.333 1.25)" d="M0 0h13.333v12.5H0z"/>
        </clipPath>
    </defs>
</svg>
